<?xml version="1.0" encoding="UTF-8"?>
<svg width="24px" height="24px" viewBox="0 0 24 24" version="1.1" xmlns="http://www.w3.org/2000/svg" xmlns:xlink="http://www.w3.org/1999/xlink">
    <g stroke="none" stroke-width="1" fill="none" fill-rule="evenodd">
        <path d="M7.5,6.5 C7.5,7.88071187 6.38071187,9 5,9 C3.61928813,9 2.5,7.88071187 2.5,6.5 C2.5,5.11928813 3.61928813,4 5,4 C6.38071187,4 7.5,5.11928813 7.5,6.5 Z M7.5,6.5 L7.5,17.5 C7.5,18.8807119 8.61928813,20 10,20 C11.3807119,20 12.5,18.8807119 12.5,17.5 C12.5,16.1192881 11.3807119,15 10,15 C9.44771525,15 8.94771525,15.2107137 8.58578644,15.5857864 M7.5,6.5 L16.5,6.5 C17.8807119,6.5 19,5.38071187 19,4 C19,2.61928813 17.8807119,1.5 16.5,1.5 C15.1192881,1.5 14,2.61928813 14,4 C14,4.55228475 14.2107137,5.05228475 14.5857864,5.41421356" stroke="currentColor" stroke-width="1.5" stroke-linecap="round" stroke-linejoin="round"/>
    </g>
</svg> 